# xmcd CD database file
#
# Track frame offsets:
#	150
#	25537
#	41612
#	73047
#	86277
#	102210
#	121345
#	133615
#	147320
#	160820
#	170430
#	183207
#	195375
#	215962
#	230295
#	241972
#	251325
#	267637
#	281040
#	300582
#	312632
#	322757
#
# Disc length: 4566 seconds
#
# Revision: 0
# Processed by: cddbd v1.5.1PL0 Copyright (c) Steve Scherf et al.
# Submitted via: CDex 1.51
#
DISCID=3311d416
DTITLE=Bud Powell - Birdland All Season 1953 Sessions (Disc-1)
DYEAR=1977
DGENRE=Jazz
TTITLE0=TEA FOR TWO
TTITLE1=IT COULD HAPPEN TO YOU
TTITLE2=LOVER COME BACK TO ME
TTITLE3=LULLABY OF BIRDLAND
TTITLE4=I WANT TO BE HAPPY
TTITLE5=EMBRACEABLE YOU
TTITLE6=I'VE GOT YOU UNDER MY SKIN
TTITLE7=ORNITHOLOGY
TTITLE8=HOW HIGH THE MOON
TTITLE9=BUDO
TTITLE10=HALLELUJAH
TTITLE11=I'VE GOT YOU UNDER MY SKIN
TTITLE12=EMBRACEABLE YOU
TTITLE13=I WANT TO BE HAPPY
TTITLE14=I'VE GOT YOU UNDER MY SKIN
TTITLE15=SURE THING
TTITLE16=EMBRACEABLE YOU
TTITLE17=WOODYN YOU
TTITLE18=SALT PEANUTS
TTITLE19=I'VE GOT YOU UNDER MY SKIN
TTITLE20=AUTUMN IN NEW YORK
TTITLE21=I WANT TO BE HAPPY
EXTD=YEAR: 1977
EXTT0=
EXTT1=
EXTT2=
EXTT3=
EXTT4=
EXTT5=
EXTT6=
EXTT7=
EXTT8=
EXTT9=
EXTT10=
EXTT11=
EXTT12=
EXTT13=
EXTT14=
EXTT15=
EXTT16=
EXTT17=
EXTT18=
EXTT19=
EXTT20=
EXTT21=
PLAYORDER=
